<svg xmlns="http://www.w3.org/2000/svg" width="48" height="46" viewBox="0 0 48 46">
    <g fill="none" fill-rule="evenodd">
        <path fill="#47AAFF" d="M20.002 27.604c-.482 0-1.002-.382-1.002-1.002V13.4c0-.62.52-1.004 1.002-1.004.168 0 .33.044.482.128l11.884 6.602a.981.981 0 0 1 .514.874.98.98 0 0 1-.514.874l-11.884 6.602a.967.967 0 0 1-.482.128z"/>
        <path fill="#060D6A" d="M2 38h44V2H2v36zM46 0H2a2 2 0 0 0-2 2v36a2 2 0 0 0 2 2h44a2 2 0 0 0 2-2V2a2 2 0 0 0-2-2zM20.007 13.403l11.874 6.596L20 26.601l.008-13.198zm-.004 15.2c.322 0 .654-.08.968-.254l11.882-6.6c1.372-.762 1.372-2.736 0-3.498l-11.882-6.6a1.969 1.969 0 0 0-.968-.254c-1.046 0-2.004.836-2.004 2.002v13.202c0 1.166.958 2.002 2.004 2.002zM43 44H5a1 1 0 0 0 0 2h38a1 1 0 0 0 0-2"/>
    </g>
</svg>
