<svg xmlns="http://www.w3.org/2000/svg" width="36" height="48" viewBox="0 0 36 48">
    <g fill="none" fill-rule="evenodd">
        <path fill="#47AAFF" d="M17.93 41c4.72 0 8.99-1.926 12.07-5.034l-4.47 10.428a.996.996 0 0 1-.918.606H11.248a.996.996 0 0 1-.918-.606L5.86 35.966A16.94 16.94 0 0 0 17.93 41zm0-34a16.94 16.94 0 0 0-12.07 5.034l4.47-10.428A.996.996 0 0 1 11.248 1h13.364c.4 0 .762.238.918.606L30 12.034A16.94 16.94 0 0 0 17.93 7z"/>
        <path fill="#060D6A" d="M24.682 46H11.32l-2.908-6.786A17.881 17.881 0 0 0 18 42c3.53 0 6.812-1.03 9.59-2.786L24.682 46zM18 8c8.824 0 16 7.178 16 16s-7.176 16-16 16C9.178 40 2 32.822 2 24S9.178 8 18 8zm-6.68-6h13.362l2.908 6.786A17.883 17.883 0 0 0 18 6c-3.528 0-6.81 1.03-9.588 2.786L11.32 2zM36 24c0-4.866-1.938-9.274-5.076-12.514L26.52 1.212A1.997 1.997 0 0 0 24.682 0H11.32c-.8 0-1.524.476-1.838 1.212L5.078 11.486C1.94 14.726 0 19.134 0 24s1.94 9.274 5.078 12.514l4.404 10.274A1.997 1.997 0 0 0 11.32 48h13.362c.8 0 1.524-.476 1.838-1.212l4.404-10.274A17.929 17.929 0 0 0 36 24zm-19 2h10a1 1 0 0 0 0-2h-9v-9a1 1 0 0 0-2 0v10a1 1 0 0 0 1 1"/>
    </g>
</svg>
