<svg xmlns="http://www.w3.org/2000/svg" width="46" height="44" viewBox="0 0 46 44">
    <g fill="none" fill-rule="evenodd">
        <path fill="#47AAFF" d="M44 1H16c-.55 0-1 .45-1 1v10h15a2 2 0 0 1 2 2v11.158h4.352l7.022 5.62a.968.968 0 0 0 .616.222c.258 0 .516-.104.708-.284a.96.96 0 0 0 .302-.72V2c0-.55-.45-1-1-1"/>
        <path fill="#060C6A" d="M44 29.996l-7.298-5.838H32V14a2 2 0 0 0-2-2H16V2h28v27.996zm-14 6.162H9.298L2 41.996V14h28v22.158zM44 0a2 2 0 0 1 2 2v27.996c0 1.19-.976 2.004-2.01 2.004-.424 0-.858-.138-1.24-.442l-6.75-5.4h-4v10a2 2 0 0 1-2 2H10l-6.75 5.4A1.977 1.977 0 0 1 2.01 44C.976 44 0 43.186 0 41.996V14a2 2 0 0 1 2-2h12V2a2 2 0 0 1 2-2h28z"/>
    </g>
</svg>
