<svg xmlns="http://www.w3.org/2000/svg" width="48" height="38" viewBox="0 0 48 38">
    <g fill="none" fill-rule="evenodd">
        <path fill="#47AAFF" d="M5.984 37L33.2 17.79a.995.995 0 0 1 1.284.108L47 30.412V36c0 .55-.448 1-1 1H5.984zM12 17c-2.756 0-5-2.243-5-5 0-2.759 2.244-5 5-5s5 2.241 5 5c0 2.757-2.244 5-5 5z"/>
        <path fill="#060D6A" d="M35.191 17.191a2.005 2.005 0 0 0-2.568-.22L5.667 36H2V2h44v26L35.191 17.191zM46 36H9.135l24.642-17.394L46 30.83V36zm0-36H2a2 2 0 0 0-2 2v34a2 2 0 0 0 2 2h44c1.106 0 2-.894 2-2V2a2 2 0 0 0-2-2zM12 16c-2.206 0-4-1.794-4-4s1.794-4 4-4 4 1.794 4 4-1.794 4-4 4m0-10a6 6 0 1 0 0 12 6 6 0 0 0 0-12"/>
    </g>
</svg>
