<svg xmlns="http://www.w3.org/2000/svg" width="880" height="108" viewBox="0 0 880 108">
    <defs>
        <linearGradient id="a" x1="0%" y1="50%" y2="50%">
            <stop offset="0%" stop-color="#3892F8"/>
            <stop offset="100%" stop-color="#35A8FA"/>
        </linearGradient>
    </defs>
    <path fill="url(#a)" fill-rule="evenodd" d="M287.668 296v-37.828h39.234v-19.758h-39.234v-23.133h43.242V194.54h-69.047V296h25.805zm162.21 0l-6.327-22.29h-33.117l-6.54 22.29h-25.593l34.031-101.46h31.57L478.004 296h-28.125zm-23.413-78.61l-11.11 37.758H438.7l-10.898-37.757h-1.336zm99.422 49.712c.422 19.546 16.593 31.64 42.258 31.64 26.578 0 42.75-12.797 42.75-33.96 0-16.102-9-25.173-29.04-29.04l-13.078-2.531c-10.687-2.11-15.187-5.344-15.187-10.899 0-6.75 5.976-11.039 15.047-11.039 9.07 0 15.89 4.993 16.453 12.165h23.836c-.422-18.774-16.875-31.641-40.64-31.641-24.47 0-40.36 13.008-40.36 32.836 0 15.96 9.562 26.086 28.125 29.601l13.36 2.672c11.6 2.32 16.03 5.344 16.03 10.969 0 6.68-6.609 11.32-16.242 11.32-10.687 0-18.07-4.71-18.703-12.093h-24.61zM757.637 296V194.54h-25.735v39.796h-40.43v-39.797h-25.804V296h25.805v-40.922h40.43V296h25.734zm85.008 0V194.54H816.84V296h25.805zm104.484-104.203c30.516 0 49.922 20.46 49.922 53.437 0 33.047-19.406 53.508-49.922 53.508-30.656 0-50.063-20.46-50.063-53.508 0-32.976 19.618-53.437 50.063-53.437zm0 21.375c-14.274 0-23.766 12.516-23.766 32.062 0 19.618 9.352 32.133 23.766 32.133 14.273 0 23.695-12.515 23.695-32.133 0-19.547-9.492-32.062-23.695-32.062zM1075.94 296v-57.656h1.336L1119.676 296h20.46V194.54h-24.468v57.093h-1.336l-42.258-57.094h-20.601V296h24.468z" transform="translate(-261 -191)"/>
</svg>
