<svg xmlns="http://www.w3.org/2000/svg" width="22" height="15" viewBox="0 0 22 15">
    <path fill="#F93F2D" fill-rule="evenodd" d="M19.579 6.298V3.872h-1.73v2.426h-2.49V8.03h2.49v2.495h1.73V8.03H22V6.298h-2.421zM6.987 6.159v2.773s2.685-.004 3.778-.004c-.592 1.797-1.512 2.776-3.778 2.776-2.292 0-4.081-1.862-4.081-4.159 0-2.296 1.789-4.158 4.081-4.158 1.212 0 1.995.427 2.713 1.022.575-.576.527-.658 1.99-2.042A6.955 6.955 0 0 0 6.986.545C3.128.545 0 3.68 0 7.545s3.128 7 6.987 7c5.769 0 7.179-5.031 6.711-8.386h-6.71z"/>
</svg>
