<svg xmlns="http://www.w3.org/2000/svg" xmlns:xlink="http://www.w3.org/1999/xlink" width="1400" height="991" viewBox="0 0 1400 991">
    <defs>
        <linearGradient id="a" x1="49.007%" x2="49.007%" y1="99.007%" y2=".993%">
            <stop offset="0%" stop-color="#41C0FF"/>
            <stop offset="100%" stop-color="#4697FF"/>
        </linearGradient>
        <path id="b" d="M325 32a8 8 0 1 1 0-16 8 8 0 0 1 0 16zm-220 76a8 8 0 1 1 0-16 8 8 0 0 1 0 16zm486-44a8 8 0 1 1 0-16 8 8 0 0 1 0 16zm169 81a8 8 0 1 1 0-16 8 8 0 0 1 0 16zM892 39a8 8 0 1 1 0-16 8 8 0 0 1 0 16zm235-23a8 8 0 1 1 0-16 8 8 0 0 1 0 16zm205 122a8 8 0 1 1 0-16 8 8 0 0 1 0 16z"/>
    </defs>
    <g fill="none" fill-rule="evenodd">
        <path fill="url(#a)" d="M0 333h1400v654H0V333zm.54-188.054s62.77-51.978 119.808-44.84c41.793 5.23 46.058 28.475 88.293 23.423 62.3-7.453 69.07-101.378 120.359-99.372 40.332 1.578 48.863 66.22 101.46 70.884 52.599 4.665 104.97-49.07 180.595-37.63 75.625 11.439 88.427 85.779 156.14 80.715 66.082-4.942 84.89-108.33 123.082-107.774 41.281.601 36.644 29.557 90.196 31.773 54.64 2.261 83.847-55.523 146.75-55.123 62.902.4 75.132 96.651 158.277 116.527 73.348 17.534 114.223-4.65 114.223-4.65L1400.18 333H.18l.36-188.054z" transform="translate(0 4)"/>
        <g transform="translate(0 4)">
            <use fill="#47AAFF" xlink:href="#b"/>
            <path stroke="#FFF" stroke-width="4" d="M325 34c-5.523 0-10-4.477-10-10s4.477-10 10-10 10 4.477 10 10-4.477 10-10 10zm-220 76c-5.523 0-10-4.477-10-10s4.477-10 10-10 10 4.477 10 10-4.477 10-10 10zm486-44c-5.523 0-10-4.477-10-10s4.477-10 10-10 10 4.477 10 10-4.477 10-10 10zm169 81c-5.523 0-10-4.477-10-10s4.477-10 10-10 10 4.477 10 10-4.477 10-10 10zM892 41c-5.523 0-10-4.477-10-10s4.477-10 10-10 10 4.477 10 10-4.477 10-10 10zm235-23c-5.523 0-10-4.477-10-10s4.477-10 10-10 10 4.477 10 10-4.477 10-10 10zm205 122c-5.523 0-10-4.477-10-10s4.477-10 10-10 10 4.477 10 10-4.477 10-10 10z"/>
        </g>
    </g>
</svg>
