<svg xmlns="http://www.w3.org/2000/svg" width="48" height="38" viewBox="0 0 48 38">
    <g fill="none" fill-rule="evenodd">
        <path fill="#47AAFF" d="M24 18.685a.987.987 0 0 1-.504-.136L1 5.427V2c0-.552.45-1 1-1h44c.55 0 1 .448 1 1v3.426L24.504 18.549a.987.987 0 0 1-.504.136"/>
        <path fill="#060D6A" d="M46 36H2V7.166l20.992 12.246a1.998 1.998 0 0 0 2.016 0L46 7.166V36zM2 2h44v2.852L24 17.684 2 4.852V2zm44-2H2a2 2 0 0 0-2 2v34a2 2 0 0 0 2 2h44a2 2 0 0 0 2-2V2a2 2 0 0 0-2-2z"/>
    </g>
</svg>
