<svg xmlns="http://www.w3.org/2000/svg" width="21" height="24" viewBox="0 0 21 24">
    <path fill="#191B1F" fill-rule="evenodd" d="M14.11 3.835C14.97 2.82 15.546 1.409 15.39 0c-1.235.047-2.737.807-3.62 1.818-.793.901-1.488 2.336-1.304 3.713 1.379.105 2.787-.683 3.643-1.696m6.391 13.77c-.03.081-.517 1.722-1.703 3.41-1.02 1.464-2.085 2.923-3.76 2.952-1.642.031-2.17-.952-4.051-.952-1.88 0-2.467.923-4.023.983-1.618.062-2.844-1.58-3.878-3.037-2.112-2.98-3.72-8.422-1.56-12.092 1.078-1.824 2.997-2.977 5.083-3.008 1.59-.026 3.085 1.042 4.055 1.042.97 0 2.787-1.291 4.702-1.102.797.036 3.046.316 4.493 2.381-.12.074-2.685 1.53-2.657 4.568.032 3.631 3.261 4.84 3.299 4.854"/>
</svg>
