<svg xmlns="http://www.w3.org/2000/svg" width="1040" height="108" viewBox="0 0 1040 108">
    <defs>
        <linearGradient id="a" x1="50%" x2="50%" y1="0%" y2="100%">
            <stop offset="0%" stop-color="#3791F7"/>
            <stop offset="100%" stop-color="#3C9CFF"/>
        </linearGradient>
    </defs>
    <path fill="url(#a)" fill-rule="evenodd" d="M79.055 105V67.172h39.234V47.414H79.055V24.281h43.242V3.54H53.25V105h25.805zm166.992-20.742h-43.734V63.516h41.132V44.53h-41.132v-20.25h43.734V3.54h-69.54V105h69.54V84.258zm126.844 0h-43.735V63.516h41.133V44.53h-41.133v-20.25h43.735V3.54h-69.54V105h69.54V84.258zm57.304-80.79h42.61c30.234 0 47.46 18.071 47.46 49.782 0 33.328-16.945 51.75-47.46 51.75h-42.61V3.469zM456 24.212v60.047h12.164c16.734 0 25.805-10.406 25.805-30.516 0-18.914-9.563-29.531-25.805-29.531H456zM623.414 105h-48.726V3.54h47.32c20.25 0 32.203 9.562 32.203 25.312 0 10.898-8.156 20.109-18.914 21.585v1.336c13.289.704 23.555 11.04 23.555 23.977 0 17.79-13.711 29.25-35.438 29.25zm-22.922-83.25v23.133h13.64c9.423 0 14.907-4.36 14.907-11.531 0-7.243-5.133-11.602-13.922-11.602h-14.625zm0 65.04h15.61c10.687 0 16.523-4.712 16.523-13.29 0-8.297-5.977-12.938-16.664-12.938h-15.469V86.79zM777.328 105L771 82.71h-33.117l-6.54 22.29H705.75L739.781 3.54h31.57L805.454 105h-28.125zm-23.414-78.61l-11.11 37.758h23.344L755.25 26.391h-1.336zm148.149 81.352c26.015 0 44.859-16.383 45.703-39.586h-24.75c-1.477 10.899-9.774 18.07-20.883 18.07-14.203 0-22.852-12.234-22.852-32.062 0-19.758 8.649-31.852 22.782-31.852 11.109 0 19.476 7.454 20.812 18.493h24.82C946.922 17.813 927.585.797 902.062.797c-30.445 0-49.078 20.32-49.078 53.437 0 33.118 18.703 53.508 49.078 53.508zM1027.5 105V76.312l8.93-11.32L1062.023 105h30.305l-37.125-56.672L1090.29 3.54h-27.703l-33.75 43.594h-1.336V3.539h-25.805V105h25.805z" opacity=".5" transform="translate(-53)"/>
</svg>
